<?xml version="1.0" encoding="UTF-8"?>
<svg id="Layer_2" data-name="Layer 2" xmlns="http://www.w3.org/2000/svg" viewBox="0 0 1536 342.57">
  <defs>
    <style>
      .cls-1 {
        fill: #212121;
        stroke-width: 0px;
      }
    </style>
  </defs>
  <g id="Layer_1-2" data-name="Layer 1">
    <path class="cls-1" d="m1532.08,81.87c-3.93-3.68-9.85-8.64-15.5-8.99-5.06-.32-11,3.17-15.74,4.57-.84.25-1.62.28-2.32.15-.65.58-1.3,1.16-1.93,1.76-3.15,2.99-5.44,7.05-8.92,9.48-3.89,2.71-4.86,5.12-2.84,7.71-.67,3.1-1.08,5.12-1.55,7.13-.22.95-.44,1.91-.83,2.79-2.2,5.02-4.48,10.01-6.65,15.04-.22.5,0,1.28.19,1.86.75,2.13,1.58,4.24,2.78,7.44.23.13,1.74.95,2.49,1.36-1.43,5.36-2.78,10.08-3.88,14.85-.16.69,1.13,1.61,1.24,2.48.2,1.49.54,3.38-.16,4.49-1.28,2.06-3.72,3.42-4.86,5.52-1.88,3.47-9.09,5.13-4.16,11.21.32.39-.27,1.52-.43,2.31-1.34,6.47-7.66,7.34-12.05,9.29-9.85,4.39-14.42,10.01-14.6,20.92-.04,2.17-.96,5.96-2.03,6.17-3.25.63-2.89,2.97-3.68,4.91-.59,1.46-1.42,2.81-2.87,5.61-2.54-3.45-4.45-6.05-6.45-8.78-.61,1.35-1.3,2.87-2.58,5.68-.52-5.76-.96-10.18-1.3-14.61-.24-3.15.88-7.4-.76-9.26-4.66-5.27-1.49-10.96-2.88-16.26.41-.09.82-.17,1.22-.26.47,2.27.94,4.54,1.42,6.81-.38-8.62-1-17.19-1.6-25.76-.1-1.42.35-3.75-.3-4.11-5.1-2.8-3.75-7.7-3.89-11.81-.68-19.58-.93-39.17-1.58-58.74-.19-5.61-1.22-11.2-1.87-16.8-1.41,6.39-2.29,12.61-2.48,18.84-.41,13.48-.41,26.97-.71,40.46-.17,7.64-.38,15.3-1.06,22.91-.26,2.84-2.7,5.54-2.76,8.33-.12,5.61.86,11.24,1.07,16.87.07,1.93-.8,3.9-1.28,6.01.76,4.13,2.53,8.89,2.28,13.54-.38,7.02-2.43,13.94-3.21,20.96-.33,2.92-.23,7.5,1.48,8.66,2.84,1.93,2.53,3.95,2.5,6.26-.09,7.1-.31,14.2-.57,21.29-.05,1.3-.5,2.59-.76,3.89-1.04-6.74-6.06-7.6-11.24-8.21-1.32-.16-2.65-.29-3.98-.31-5.7-.07-7.7,1.61-9.32,6.99-.79,2.63-.2,6.43-4.52,6.8.24,1.14.37,2.33.77,3.41.25.68,1.2,1.18,1.27,1.82.05.41-1,.88-1.45,1.41-1.14,1.35-3.13,2.74-3.16,4.14-.14,6.31.29,12.63.52,19.08-2.16,1.09-5.38,2.6-8.47,4.32-4.46,2.48-7.6.65-9.03-4.07-2.35-7.75-5.37-15.32-8.53-22.79-.56-1.32-3.1-2.34-4.83-2.51-3.08-.31-5.3-.98-6.23-4.36-1.64-5.93-3.57-11.78-5.39-17.66-4.27-13.83-9-27.53-12.64-41.52-2.25-8.66-2.85-17.76-4.2-26.72q9.63-.75,10.75-9.32c.11-.82.49-1.67.36-2.44-.17-.97-.52-2.08-1.17-2.75-2-2.06-4.19-3.94-5.94-5.56-2.1-.8-4.43-1.12-5.91-2.42-1.23-1.08-1.47-3.29-2.13-5.01-.84-2.16-1.8-4.28-2.48-6.48-1.19-3.84.41-8.89-5.18-10.81-.83-.29-.93-2.69-1.33-3.99,4.91.43,9.12,1.03,13.34,1.04,1.37,0,3.85-1.44,3.92-2.37.27-3.51-.23-7.08-.45-10.63-1.6.63-3.4.99-4.7,2-.61.48-.37,2.22-.31,3.37.15,2.96-1.02,4.34-4.11,3.95-1.64-.21-3.41.17-4.94-.3-1.39-.43-2.53-1.64-3.78-2.51,1.13-.76,2.19-2.04,3.39-2.18,4.41-.51,5.27-2.97,5.74-7.07.62-5.45-2.22-9.75-3.1-14.62-1.4-7.78-1.11-7.82-9.06-9.52-.43-.09-.8-.49-1.19-.74-.42-2.29-2.1-5.42-2.84-5.22-3.41.96-8.89-2.69-9.69,4.44-1.81-1.03-3.14-1.79-4.54-2.58-1.7,1.61-3.42,4.45-4.74,4.28-6.17-.81-4.64,3.72-5.19,6.72-.36,1.95.47,4.52-.52,5.86-1.66,2.26.26,7.8-5.88,6.75v-9.35c-4.1.29-3.98.3-4.36,4.82-2.94,34.69-5.9,69.38-8.92,104.06-.65,7.43-1.59,14.83-2.39,22.24.69.06,1.37.13,2.06.19,3.71-37.67,7.43-75.33,11.16-113.23,2.57,0,5.56-.59,8.11.2,1.81.56,4.53,3.29,4.27,4.49-.73,3.37-2.95,6.4-4.27,9.69-.65,1.61-.6,3.49-.91,5.45,3.43.21,5.91.36,8.49.51,1.73,4.41,2.6,8.19-1.18,12.45-1.51,1.7-1.43,6.75.03,8.71,2.85,3.83,2.92,7.84,3.39,12.03.36,3.28.17,5.34-4.27,5.13-2.26-.11-5.53,1.41-6.74,3.25-1.97,2.99-2.63,6.85-3.84,10.35.28.22.55.44.83.66.61-1.19,1.22-2.37,1.87-3.63-.39,11.56-.67,22.5-1.17,33.43-.18,3.85.91,5.67,5.08,4.97.92-.15,2.04.87,3.06,1.35-.93.91-1.73,2.43-2.8,2.64-4.38.85-8.78,1.43-10.59,6.26-11.49-2.61-13.22-1.32-14.31,10.36-.09,1-.11,2-.24,2.99-1.85,14.52-3.72,29.04-5.56,43.57-.53,4.16-2.38,5.9-6.85,3.99,1.14-7.17,2.25-14.15,3.44-21.63-7.56-.63-14.5-1.27-21.45-1.75-2.59-.18-3.87-1.07-3.93-3.89-.08-3.44-.63-6.86-.96-10.21-1.81-.25-3.26-.46-5.55-.78.88-1.91,1.59-3.43,2.36-5.11-.77-.19-1.56-.33-2.31-.57-7.74-2.52-7.83-2.53-7.92-11.04-.14-13.33-.24-26.66-.14-39.99.02-3.22-1.05-4.41-4.2-4.63-1.72-.12-4.5-.94-4.84-2.04-1.3-4.28-4.01-4.23-7.65-3.36.25,4.27-2.68,4.62-5.92,4.57-2.66-.04-5.35.15-7.99-.09-3.89-.37-5.28,1.06-5.22,5.07.18,12.99.04,25.99-.04,38.99-.01,2.09-.34,4.17-.49,5.88-3.54,0-6.5.09-9.45-.06-.83-.04-1.99-.57-2.38-1.24-6.67-11.45-13.29-22.93-19.71-34.53-.48-.87.36-2.83,1.1-3.94,1.83-2.72,3.95-5.23,5.96-7.83-.18-.3-.37-.61-.55-.91-1.86.66-3.73,1.31-5.92,2.08.21-2.36.39-4.47.59-6.72,1.58-.28,2.9-.52,5.03-.89-6-1.32-6.41-4.88-6.24-9.59.4-11.16.13-22.34.13-33.94-10.71,1.24-13.14-7.15-17.75-13.7,2.13-.73,3.73-1.28,5.19-1.79.86,1.49,1.6,2.79,1.81,3.16,1.7-2.09,3.31-4.08,5.02-6.18.87,2.89,1.44,4.77,2.01,6.65.66-.15,1.31-.3,1.97-.46-.89-6.52-1.77-13.05-2.66-19.57.06,4.25-2.52,6.62-5.71,8.97-1.68,1.24-2.43,3.76-4.18,6.66-.73-2.9-1.28-4.87-1.73-6.87-.8-3.53,1.07-5.33,4.26-5.64,2.84-.27,4.31-1.08,4.12-4.28-.04-.67,2.11-1.48,3.25-2.22-3.35-15.12-8.25-30.08-4.85-46.04,3.94-1.41,5.93-6.1,3.02-8.3-4.48-3.38-1.35-5.73.08-9.06,1.49-3.45,1.78-7.66,1.63-11.5-.1-2.48-1.82-4.96-3.06-7.31-1.31-2.48-2.9-4.81-4.42-7.29-1.15,1.09-1.88,1.79-2.62,2.49-.38-.48-.75-.95-1.13-1.43,1.45-1.05,2.89-2.1,4.34-3.16-.47.11-.94.22-1.41.33-.78-2.58-1.71-5.12-2.29-7.74-.32-1.43.45-3.25-.16-4.42-.72-1.37-2.31-2.42-3.73-3.25-2.04-1.18-4.27-2.03-6.91-3.24-.28.61-1.75,2.36-1.8,4.14-.13,5.52.26,11.06.51,16.59.12,2.7-.79,4.23-3.14,6.08-1.8,1.43-1.6,5.39-2.29,8.22,4.07.57,2.44,4.12,3.65,6.26-1.41.35-2.5.62-3.58.89.01.31.02.61.04.92,1.39.39,2.77.77,4.5,1.25-2.14,1.41-3.68,2.42-5.22,3.42,1.62.83,3.25,1.65,5.7,2.9-.79,3.32-1.66,6.99-2.58,10.83,3.86,2.36,1.86,6.55,1.46,9.97-1.72,14.82-3.89,29.59-5.81,44.39-.51,3.89-.71,7.82-.93,10.27-3.59,1.66-7.56,2.21-8.58,4.24-2.22,4.43,1.04,7.37,3.81,8.35.43,5.27,1,9.52,1.09,13.77.27,12.97.71,25.96.29,38.91-.13,3.99-2.8,7.92-4.39,11.84-.46,1.15-1.32,2.14-1.75,3.29-1.99,5.34-2.95,11.34-6.01,15.96-12.09,18.24-22.18,37.5-31.22,57.37-1.63,3.59-4.65,5.2-8.45,5.52-.14.01-.31-.45-.47-.69.61-.29,1.22-.57,2.47-1.15h-7.81c1.12.77,1.7,1.18,2.29,1.59-.12.22-.25.45-.37.67-4.18-1.19-8.37-2.39-12.39-3.54,0-5.06-.12-10.16.04-15.25.11-3.53-.73-5.93-4.84-5.72-3.33.17-4.71-1.25-4.67-4.72.02-1.88-1.14-3.78-1.88-6.02-3.18,3.14-.11,8.66-6.53,10.56v-24.75c-.57.01-1.14.03-1.72.04,0,6.8.05,13.61-.04,20.41-.02,1.62,0,4.28-.85,4.68-6.17,2.9-2.98,7.88-3.01,12.09-.01,1.15.51,2.31,1.02,4.42.65-2.17.98-3.26,1.46-4.87q2.87,6.7-5.84,9.68c.22,2.05.44,4.06.73,6.75-3.61,0-6.72-.24-9.76.1-1.43.16-2.92,1.23-4,2.28-.5.49-.09,1.92-.09,3.5,4.18,3,1.79,7.93,2.14,12.21-2,.55-3.37,1.09-4.78,1.3-3.79.56-7.41,2.27-11.05-1.54-6.02-6.29-6.29-6.01-13.61-.66-.34.25-.9.21-2.73.6.43-4.99,1-9.5,1.13-14.04.04-1.51-.95-3.11-1.66-4.57-.5-1.03-1.32-1.91-1.99-2.86.88-.48,2.1-.74,2.58-1.47,1.23-1.86,3.13-4.05,2.93-5.91-.33-2.97-3.03-3.64-5.82-2.45-4.81,2.07-7.34,5.93-8.41,11.44-3.16-.53-6.17-1.46-9.19-1.45-6.74.02-13.48.39-20.2.84-3.27.22-4.51-.14-4.47-4.18.03-2.4-3.06-5.09-5.22-7.14-.81-.77-4.05-.62-4.35,0-1.14,2.36-2.59,5.35-2,7.61,1.62,6.2-.63,11.73-1.8,17.45-.29,1.44-1.7,2.65-2.57,3.94-4.82-2.92-7.65-9.92-5.7-13.63-1.06-.94-2.15-1.91-3.26-2.9-.88.69-1.73,1.36-3.3,2.59-.9-2.93-1.23-5.59-2.51-7.66-1.12-1.81-3.31-2.95-5.03-4.38-.45.2-.89.4-1.34.61,3.21,9.08-3.34,15.12-6.21,22.51-.99-2.24-1.36-5.25-2.98-6.28-3.52-2.24-3.18-4.87-2.51-8.12,1.28-6.26-1.36-9.17-7.65-8.78-1.79.11-3.6.16-5.39,0-4.07-.35-9.3,3-10.24,6.99-1.22,5.14-2.19,10.34-3.2,15.2-13.59,2.66-18.21-2.78-17.24-18.03,1.72-1.98,3.87-3.3,3.9-4.67.2-7.3-.36-14.48-9.98-15.63-6.34,5.37-4.23,13.08-1.87,18.9,2.02,4.98,2.87,9.73,3.25,14.76.13,1.76-1.12,3.63-1.78,5.59-2.4-1.4-3.99-2.12-5.35-3.16-4.86-3.73-11.15-6.06-12.72-13.1-.11-.51-1.97-.62-3.11-.9-.47-4-4.3-2.78-6.57-3.9-.55-.27-1.93,1.14-3.59,2.2,5.92,2.36,5.22,6.9,4,10.43-.45,1.29-6.71,2.4-7.51,1.38-1.91-2.42-2.15-6.17-3.31-10.25,2.75.44,3.85.61,4.89.77.38-3.4.84-6.46,1.03-9.54.35-5.54.59-11.1.77-16.65.02-.74-.55-1.49-.84-2.24-.62.33-1.34.55-1.83,1.01-.47.44-.72,1.13-1.07,1.71-.39-.71-1.24-1.55-1.09-2.12.68-2.45.43-3.24-2.56-3.67-2.07-.3-4.57-2.67-1.01-5.57,1.25-1.02,1.25-3.58,2.03-6.12-1.65.79-2.34,1.12-4.42,2.11.74-3.34.48-6.7,1.99-7.97,3.15-2.65,3.56-5.27,2.34-8.71v.02c-.27.05-.54.14-.81.13-.1,0-.28-.25-.27-.37.23-2.68.88-5.39.63-8.01-.43-4.58-1.81-9.09-2.07-13.67-.38-6.48-.05-12.99-.15-19.49-.05-3.2-.36-6.39-.56-9.58-.57-.1-1.14-.2-1.71-.29-.45,1.51-1.28,3.02-1.29,4.53-.04,7.48.42,14.98.1,22.44-.11,2.52-1.45,6.63-3.12,7.14-5.88,1.81-3.82,6.23-4.32,9.86-.27,1.96-.54,3.92-.81,5.88,1.82,1.55,2.35,3.47,3.21,5.22.7,1.42,1.81,2.64,2.7,3.97.58.87,1.59,1.79,1.58,2.68-.1,5.65-.07,11.38-4.35,15.94-.75.8-1.3,1.94-1.58,3.02-1.17,4.5-2.19,9.04-3.27,13.57-.53-.07-1.06-.13-1.58-.2-.17-2.41-.28-4.82-.54-7.21-.07-.66-.5-1.74-.9-1.81-.77-.13-2.06.06-2.39.59-1.39,2.2-2.51,4.58-3.9,7.24,1.91-.09,3.29-.16,6.26-.31-1.12,5.59-2.13,10.61-3.14,15.63-.32-.07-.63-.15-1.17-.27-.06-1.22-.12-2.48-.23-4.86-2.13,7.29-2.31,7.3-8.33,5.56-.96-.28-2.35.71-3.47,1.25-2.97,1.43-3.97,6.63-8.67,4.71-5.01-2.05-9.98-4.23-14.89-6.5-3.57-1.65-6.54-1.84-8.96,1.98-.82,1.29-2.39,2.58-3.84,2.9-5.01,1.1-10.11,1.76-15.17,2.61-.29.05-.56.26-1.02.48.62.9,1.22,1.77,2.18,3.17h-4.5c-.45-1.82-.83-3.35-1.43-5.8-.92,2.44-1.48,3.94-2.05,5.45-1.43-.09-2.82-.62-3.69-.16-7.07,3.74-14.65.99-21.93,1.83-.75.09-1.63-.99-2.44-1.53.85-.55,1.65-1.42,2.57-1.59,1.71-.32,3.5-.23,6.14-.35,0-7.22.08-13.86-.07-20.49-.03-1.35-.69-3.72-1.42-3.86-3.99-.8-7.43-4.82-12.16-2.03-1.35.8-3.46.3-6.22.45.72-3.22,1.52-5.67,1.77-8.18.28-2.76.19-5.58.04-8.37-.49-9.32.32-10.18,9.44-10.14,11.1.05,22.2.01,33.8.01-.39-1.73-.36-3.55-.91-3.75-2.98-1.06-6.1-1.73-9.19-2.5-1.32-.33-2.67-.57-4-.85.91-.84,1.83-1.67,2.74-2.51.57-.53,1.13-1.08,1.39-1.33-1.26-1.88-2.33-3.49-3.38-5.06,6.38-4.35,12.26-7.51,19.94-4.28-.26,2.79-.51,5.72-.81,8.64-.55,5.24,3.68,4.09,6.44,4.74,2.73.64,5.39.91,5.8-3.16.47-4.64,1.12-9.26,1.83-13.86.48-3.09-.91-4.35-3.79-4.38-3.44-.03-6.88,0-10.8,0,.1-2.18.18-3.88.21-4.55-8.96.67-17.81,1.32-27.54,2.05.66-2.47.59-4.45,1.41-4.92,3.51-2.02,7.27-3.61,12.26-5.98-3.74-1.73-7.13-4.41-8.35-3.65-3.06,1.92-5.62.94-8.47.63-4.51-.49-9.05-.83-13.57-1.24l-.39,1.2c2.88,1.94,5.75,3.87,8.93,6.01-9.28-.63-18.34-1.24-27.34-1.85-.57-1.28-1.08-2.42-1.6-3.57-1.05.72-2.03,1.57-3.16,2.14-1.08.54-2.3,1.12-3.46,1.11-4-.02-8-.18-11.98-.51-1.19-.1-3.16-.68-3.35-1.4-.86-3.35-2.1-6.99-1.54-10.23.86-4.93,2.84-9.73,4.8-14.39,2.51-5.99,1.3-9.47-4.22-12.28-4.86-2.47-9.12-1.43-12.77.8-1.09,4.44-3.64,8.82-2.67,12.2,1.6,5.58.14,10.38-.88,15.43-.93,4.57-2.37,9.1,3,13-4.53-2.13-4.86.18-4.98,3.11-.27,6.75-.69,13.5-1.02,20.25-.01.25.33.52.65.98h4.19c-.71,3.49,2.08,8.15-4.45,8.3,1.8,9.02-4.02,17.99,1.02,25.41-1.7,2.37-4.07,4.22-3.94,5.87.18,2.22,2.3,4.27,3.59,6.39l2.28.05c-1.81,3.57-3.68,7.1-5.37,10.72-.47,1.01-.48,2.27-.52,3.43-.04,1.14.15,2.28.29,3.98-5.58-4.49-14.22-.66-17.65,6.54-4.02-2.05-7.88-5.3-12.1-5.85-4.67-.61-9.67,1.25-14.7,2.07-.52,6.09-1.01,11.79-1.43,16.74-2.89.75-5.2,1.54-7.59,1.88-1.29.18-3.42-.02-3.86-.79-.66-1.17-.77-3.93-.07-4.38,6.56-4.21,1.82-9.94,2.97-14.8-6.65-1.17-7.27-2.31-6.5-8.72.39-3.24.07-6.56.07-9.84l-1.87-.15c-.36,1.4-1.05,2.81-1.01,4.2.06,2.03.98,4.06.91,6.07-.06,1.86-.41,4.53-1.62,5.32-1.29.84-3.75-.1-5.91-.28-.2,1.39-.38,3.37-.8,5.3-.56,2.56-.74,5.46-2.11,7.54-2.75,4.19-6.2,7.93-9.44,11.96-.84-.5-3.43-3-4.39-2.48-4.68,2.55-5.77-.48-7.02-4.46-2.81,1.07-5.26,2.26-7.84,2.89-1.26.31-2.89-.18-4.09-.81-.39-.2-.08-2.04.17-3.07.86-3.57,1.84-7.11,2.6-9.99-3.34-.99-5.29-1.46-7.11-2.23-.21-.09.32-1.88.5-2.88-1.98-1.07-3.46-2.87-4.38-4.94-1.13-2.53-1.79-5.28-2.71-8.08-1.36-.62-3.32-1.52-5.24-2.39-.03.44-.08,1.21-.13,2-1.14-.27-2.23-.76-3.32-.75-3.92.05-7.43-.28-9.67-4.32-.65-1.16-3.05-2.43-4.15-2.08-6.1,1.92-11.44,5.09-14.47,11.12-.21.41-.36.84-.57,1.33-1.04-1.47-1.68-2.36-2.31-3.26l-1.26.9c1.1,1.33,2.38,2.55,3.26,4.01,2.78,4.62,6.44,9.07,7.72,14.1.79,3.12-2.12,7.18-3.37,10.82-1.09-.31-4.04-1.66-4.39-1.17-2.09,2.94-3.58.37-4.22-.6-1.85-2.77-3.2-5.87-4.7-8.86-1.17-2.33-2.24-4.7-3.43-7.01-.14-.28-.8-.29-1.37-.47-.18,1.38-.34,2.58-.49,3.78-.56.14-1.11.28-1.67.41-1.52-4.2-3.56-8.31-4.41-12.64-.65-3.34.11-6.97.37-10.46.48-6.43,1.05-12.84,1.59-19.26-.74-.11-1.48-.23-2.21-.34-2.67,2.18-1.49,5.42-.69,8.98-7.22-2.03-14.8-1.36-18.56-8.91-1.81.88-3.23,1.57-4.68,2.27-1.06-1.89-1.98-3.52-3.06-5.45-1,1.34-1.5,2.01-2.41,3.23-2.61-4-4.86-7.45-7.12-10.9.41-.3.82-.61,1.24-.91.95,1.02,1.89,2.03,2.83,3.04,2.78-9.41.72-12.18-8.64-11.24-2.74.28-4.15-.52-4.43-3.25-.49-4.69-2.53-4.82-5.28-2-1.87-1.48-3.58-2.84-5.94-4.72,3.47-2.68,6.77-5.23,9.93-7.66-.92.06-2.23.15-3.43.23.87-2.06,1.64-3.87,2.07-4.88-2.42-1.74-4.2-3.1-6.07-4.32-.64-.42-1.76-.97-2.2-.71-4.2,2.5-9.08-.41-13.79,2.64-3.71,2.41-5.13,3.84-3.09,7.35,2,3.45.7,6.5-.49,9.47-.98,2.44-2.8,4.54-3.92,6.28-3.92-1.74-7.97-3.53-12.21-5.4-2.13,4.78,1.67,6.04,3.4,6.98-.98,2.38-2.38,4.19-2.32,5.96.13,3.94.99,7.87,1.45,11.1-2.52-.46-4.55-1.51-5.82-.92-2.62,1.21-5.9,2.83-6.92,5.16-1.03,2.34.35,5.74.66,8.48-3.35-.68-6.77-1.38-9.1-1.85-1.61,3.39-2.6,5.64-3.76,7.81-.59,1.11-1.48,2.05-2.23,3.07-.81-1.16-2.41-2.4-2.31-3.47.46-4.8,1.4-9.55,2.11-13.99-6.83,6.23-6.48,15.8-8.28,24.48-1,4.81-1.26,9.77-1.86,14.74-2.64-1.16-5.08-2.87-5.67-2.38-5.24,4.43-8.81,1.03-12.68-2.08-1.02-.82-2.59-.96-3.9-1.41-.07,1.53-.53,3.18-.12,4.58.97,3.37,2.34,6.62,3.55,9.92l-1.31.51c-.43-.66-.71-1.66-1.3-1.91-4.05-1.71-3-5.28-3.11-8.35-.12-3.47-.27-7.03,4.79-7.46.77-.07,2.13-2.22,1.93-3.13-.64-2.91-1.11-6.49-3.05-8.35-3.81-3.66-5.45-7.03-3.33-12.2.79-1.93.22-4.48.04-6.72-.22-2.7-.16-5.13,3.27-5.55,7.27-.91,14.55-1.79,21.83-2.59,1.85-.2,3.81.27,5.58-.16,2.69-.65,5.25-1.81,8.37-2.93,0-.52-.05-2.14,0-3.76.32-7.99.72-15.98.93-23.97.03-1.07-.91-2.16-1.41-3.23-.95.92-2.53,1.72-2.74,2.79-.64,3.25-.76,6.61-1.08,9.92-.24,2.49-.5,4.97-.71,7.46-.2,2.42-.33,4.84-.49,7.17-5.97-10.44-17.63-11.5-25.73-17.5,1.07-.09,2.56.15,3.64-.4,1.61-.83,2.93-2.21,4.38-3.36-1.63-.59-3.36-1.86-4.87-1.64-5.24.76-9.6.05-13.51-4.07-2.9-3.06-6.71-5.26-10.09-7.86-1.06-.81-2.17-2.45-3.08-2.33-1.16.15-2.86,1.62-2.98,2.69-.15,1.27.78,3.09,1.83,4,2.44,2.13,5.22,3.86,7.81,5.72-2.26,3.82-2.9,8.6-8.91,7.18-8.73-2.05-16.2-.87-20.01,8.84-1.06,2.69-3.53,2.76-5.8.93-2.38-1.92-4.5-4.33-7.16-5.73-3.81-2-8.01-3.28-12.5-5.05v-5.62c3.23-1.09,6.19-2.08,9.35-3.14-1.54-.29-2.78-.52-4.36-.82,2.52-2.62,9.04,1.65,8.17-5.42-.44-3.59,1.99-8.43-3.9-8.77-.67-3.63-1.26-6.83-1.84-10.02-.72-.27-1.43-.53-2.15-.8-.48,1.39-.96,2.78-1.17,3.41-2.92-1.79-5.01-3.08-7.3-4.49,3.61-2.91-.33-10.65,7.23-11.37-.92-.13-1.84-.26-2.76-.38-.1-.53-.2-1.06-.3-1.59,3.73-.69,7.45-1.38,12.28-2.27-2.3-.52-3.56-.81-5.02-1.14,1.3-1.17,2.3-2.07,3.3-2.97-.16-.5-.32-.99-.47-1.49-3.14.41-6.28.97-9.44,1.16-1.82.11-5.25-.25-5.28-.63-.3-3.58-.27-7.26.31-10.79.1-.62,3.27-.66,4.98-1.11.75-.2,1.41-.76,1.38-.74,1.47,1.17,2.73,2.18,3.99,3.18.26-.32.52-.65.78-.97-3.59-3.23-3.6-4.96.23-8.1.61,1.56,1.18,3.02,1.76,4.48,1.02-.62,2.1-1.1,2.97-1.84,1.63-1.39,4.71-3.56,4.42-4.3-1.26-3.18-3.06-6.49-5.59-8.71-2.02-1.77-5.37-2.02-9.33-3.34,2.09-1.16,3.41-2.54,4.58-2.43,4.69.44,6.27-2,7.06-5.81,2.02-1.47,4.33-3.43,4.41-5.47.14-3.65-1.05-7.36-1.52-10.06-5.01-5.67-10.82-9.26-18.82-8.83,2.71-4.04-3.65-10.86,4.55-12.13,3.82-.59,6.77,1.64,7.66,6.4-2.96.91-5.7,1.75-8.87,2.72,2.44,0,4.57.46,6.38-.1,3.39-1.05,8.49-1.92,9.43-4.26,1.44-3.56.16-8.34-.47-12.53-.11-.76-2.74-1.73-4.04-1.53-1.14.18-2.11,1.81-3.02,2.92-.62.77-1,1.73-1.49,2.61-.36-.16-.72-.32-1.07-.48.12-1.82.24-3.63.38-5.85-1.19,1-1.89,1.58-2.23,1.86-.33-2.7-.36-5.5-1.06-8.12-1.23-4.58.33-8.09,3.81-10.72,4.16-3.15,5.41-10.33,1.68-12.04-4.58-2.1-5.1-5.57-4.57-10.08.5-4.2.11-8.5.11-12.76-.57.02-1.14.03-1.72.05-.39,5.95-.78,11.9-1.18,17.98-1.45-.34-2.8-.96-4.12-.9-5.76.24-7.09-.99-7.59-6.82-.33-3.89-1.04-7.74-1.58-11.61-.54-.15-1.08-.3-1.61-.45.93,6.78-.45,11.77-8.05,11.18-.44,4.45,3.12,9.3-3.08,11.38-.44.15-.5,1.51-.67,2.32-.87,4.08,1.13,9.1-3.97,11.82-.37.2-.42,1.25-.39,1.9.33,5.63-1.73,9.66-7.37,11.47-.38.12-.54.96-.93,1.72,2.11-.1,3.76-.19,4.97-.25-1.47,1.17-2.84,2.47-4.42,3.42-.89.54-2.61,1.06-3.13.62-5.26-4.51-9.38-.83-13.92,1.45-3.52,1.78-4.61,4.1-3.23,7.65,1.31,3.36,1.21,6.35-1.19,9.34-2.42,3.02-1.12,5.12,2.45,5.43,3.71.32,7.47.07,12.07.07,0,4.44,1.74,10.16-.36,12.61-4.59,5.39-.64,6.94.81,8.39,5.51-.71,9.72-1.26,13.94-1.81.14.7.28,1.4.42,2.1-1.92.53-3.92.88-5.73,1.66-.98.42-1.65,1.57-2.47,2.39.91.84,1.7,2.11,2.76,2.4,1.17.32,2.59-.36,3.91-.4,2.67-.08,4.45.42,3.88,3.99-.33,2.08.71,4.38,1.14,6.64-.96,1.39-2.15,3.12-3.52,5.1-.52-2.52-1.03-4.97-1.75-8.47-.9,2.13-1.34,3.14-1.9,4.46-.51-1.93-.87-3.3-1.23-4.68-.42.05-.83.11-1.25.16-.22,1.54-.44,3.08-.66,4.62l-1.33-.68c-1.33,2.4-3.41,4.69-3.75,7.23-.28,2.04,1.55,4.37,2.44,6.57.45-.15.9-.29,1.36-.44-.38,3.86,1.06,8.52-4.48,9.64,1.08.99,2.79,2.02,2.64,2.51-.75,2.57-1.32,6.4-3.14,7.23-4.98,2.29-6.2,5.66-5.45,11.88,1.16-2.98,1.66-4.89,2.62-6.52.72-1.23,2.04-2.1,3.09-3.13.46.31.93.62,1.39.93-2.72,1.93-5.93,3.81-.73,6.13.43.19.64,1.52.5,2.23-1.62,8.56-3.34,17.1-4.98,25.66-.25,1.29-.2,2.64-.38,5.34,1.77-2.25,2.58-3.28,3.68-4.7.93,8.89-1.83,16.38-6.26,17.12-.2,6.65-2.31,12.59-8.43,16.84,1.14-4.8,2.29-9.59,3.31-13.88-1.15-13.07,6.04-25.18,3.67-38.11-3.39,21.71-6.77,43.42-10.16,65.13-1.31-2.51-2.42-5.16-1.94-7.48.71-3.37-.48-4.74-3.37-5.3-2.02-.39-4.1-.53-5.15-.66-.34-6.69-.2-13.04-1.2-19.21-.36-2.23-3.15-4.56-5.41-5.77-.99-.53-3.49,1.55-5.18,2.63-1.29.83-2.39,1.96-3.39,2.8-1.23-5.32-2.08-10.21-3.61-14.88-.54-1.65-2.63-3.5-4.29-3.82-1.21-.24-3.36,1.58-4.24,3-2.17,3.53-3.8,7.39-5.82,11.03-.2.35-1.59.05-2.01.05,1.72,9.68,2.52,18.99,1.92,29.18-2.76-1.48-4.17-2.24-5.75-3.09.03.1-.04-.05-.07-.21-.99-4.39,2.04-10.33-4.91-12.53-.44-.14-.65-3.1-.01-4.21,3.92-6.83,3.38-8.1-4.22-8.82-.43-.04-.82-.43-2.16-1.19,2.04-3.95,3.76-8.05,6.17-11.7,2.47-3.73,2.17-6-1.95-8.24-.7-.38-1.16-1.18-2.34-2.43,1.55,0,2.26-.21,2.75.03,5.18,2.51,8.09-.28,10.42-4.41,2.75-4.89,1.05-16.88-2.89-20.63-3.26-3.1-6.52-1.98-8.37,2.05-1.96,4.25-2.89,9.8-9.63,10.84.73-5.85-5.32-10.06-2.63-16.22,1.88-4.31,3.23-8.86,4.93-13.26.27-.7,1.02-1.57,1.68-1.7,6.17-1.25,3.31-4.24,1.81-7.46-1.01-2.16-1.87-5.04-1.28-7.18,1.35-4.88.37-8.9-2.98-12.53-2.44-2.64-3.93-6.17-5.78-9.34-1.07-1.84-1.99-3.76-3-5.63-.68-1.26-1.41-2.5-2.11-3.75.38-.18.75-.37,1.12-.57-2.22-4.28-3.49-9.17-4.86-13.75-1.2-4.01-3.21-15.3-8.74-12.74-3.69,1.71-7.04-.41-7.52-4.32-.72-5.8-1.45-11.63-2.95-17.26-2.04.84-4.21,1.42-6.57,1.85-1.08.2-3.82,1.28-5.55,1.64.41.8.82,2.1,1,2.7,1.3,4.39-.51,7.46-3.98,10.17-1.98,1.54-3.82,2.53-5.23,4.63-1.18,1.74-2.09,3.67-3.27,5.43-2.83,4.2-6.18,7.89-10.21,10.73v244.72c88.97.06,177.94.18,266.91.18,333.73,0,667.45-.03,1001.18-.07,89.3,0,178.61-.07,267.91-.11V85.81c-1.26-1.35-2.56-2.67-3.92-3.94Zm-865.83,137.75c5.37-2.6,10.19-7.18,18.1-4.77-6.67,2.89-12.46,5.4-19.1,8.28.5-1.85.47-3.25,1-3.51Zm-2.65,14.18c-6.12,0-12.09.37-17.98-.11-5.28-.43-3.32-4.52-3.26-7.32h22.24c-.38,2.82-.66,4.91-1,7.43Zm-.67-16.51c.29,2.04.49,3.47.74,5.31h-19.32c-.08-.54-.16-1.09-.24-1.63,6.1-1.19,12.2-2.38,18.82-3.68Zm-18.78-11.98c3.38-.51,6.88-.17,11.04-.17-1,4.12.65,5.72,4.58,5.31-.03.44-.05.88-.08,1.33-5.58,1.52-11.15,3.03-16.62,4.52-.96-2.78-2.29-5.12-2.38-7.51-.04-1.17,2.09-3.28,3.46-3.48Zm-388.64,25.93c.12-2.71,5.43-5.16,9.24-3.58,5.17,2.14,10.05,5.03,14.87,7.89.96.57,1.56,2.49,1.5,3.74-.03.63-1.87,1.56-2.97,1.7-7.18.87-14.39,1.56-22.69,2.42,0-4.68-.13-8.43.04-12.18Zm-60.45-112.33c.49-2.78.34-5.4,1.46-7.26,1.13-1.89,3.52-3.02,6.41-5.32-.41,5.62-.72,9.84-1.03,14.08-6.97.17-11.09-1.6-11.24-5.48,1.44,1.31,2.56,2.32,4.4,3.98Zm-47.28,111.5c.34,4.41.55,7.27.77,10.14-4.97.46-4.98.42-.77-10.14Zm8.55-24.1c3.02,2.61,2.96,3.8-1.05,13.06.34-4.2.67-8.39,1.05-13.06Zm-1.18,50.22c.26-6.28,1.09-6.81,7.41-4.1-3.01,1.66-4.91,2.72-7.41,4.1Zm11.68-100.43c-.59,4.51-2.52,8.84-3.9,13.25-.2-.02-.4-.05-.59-.07.24-2.64.48-5.29.71-7.93-.42-.09-.84-.18-1.27-.27-.51,2.34-1.02,4.68-1.62,7.42-1.19-.54-2.11-.95-3.03-1.37.47-.15.93-.3,1.4-.45-.12-2.59-.8-5.31-.22-7.73.82-3.41,2.58-6.58,4.38-10.93,1.99,3.67,4.41,6.05,4.14,8.08Zm-17.55-55.92c-2.45-3.94-3.53-12.75-1.35-14.37,1.56-1.16,4.22-2.47,5.64-1.89,6.92,2.86,7.89,5.02,6.55,12.24-1.85.24-3.91.2-5.72.84-1.73.61-3.2,1.95-5.12,3.18Zm11.79,11.36c-.44-.61-.87-1.23-1.31-1.84,1.73-1.21,3.47-2.42,5.29-3.69.77.42,1.94,1.06,3.8,2.08-2.82,1.25-5.3,2.35-7.78,3.45Zm17.53-66.38c-5.81.43-4.33-3.6-4.28-6.39.05-3,.27-3,5.64-2.58-.49,3.22-.92,6.08-1.36,8.96Zm61.77,182.63c-4.85,3.66-3.96,11.2-11.74,11.89q1.51-12.41,11.74-11.89Zm-20.82,5.14c2.13-2.78,4.48-5.4,6.77-8.07.51.49,1.02.98,1.54,1.46-2.07,2.91-4.14,5.82-6.58,9.27-.74-1.11-1.92-2.41-1.72-2.66Zm14.49,50.29c-7.91-2.54-8.92-3.84-8.67-11.54-4.19,1.66-5.36,7.26-2.72,12.39-1.46,1.19-2.9,2.36-4.39,3.56-1.15-.74-2.7-1.74-3.78-2.44-.57-3.22-1.17-6.08-1.54-8.96-.1-.8.62-1.67.74-2.54.21-1.56.25-3.15.36-4.73-1.58.81-3.41,1.36-4.64,2.54-.44.42-.56,1.16-.42,1.66-2.85-1.9-5.75-3.84-9.35-6.25,4.98-.49,5.54-3.01,5.45-6.41-.09-3.37-1.57-4.66-4.69-5.21-.97-.17-2.28-1.9-2.35-2.98-.16-2.32.38-4.68.64-7.03-.25,7.4,6.98,4.38,9.82,7.44.98-1.05,1.9-2.03,2.78-2.98,5.2,4.26-2.5,6.77-1.08,10.73,4.6,1.7,9.32,3.44,14.62,5.39.13.84.38,2.41.75,4.72,1.83-2.84,3.14-4.89,4.32-6.72-.83-.42-2.17-1.11-3.51-1.79.12-.35.23-.7.35-1.05,1.7,0,3.4-.04,5.1.02.79.03,1.71.02,2.34.4,1.8,1.07,3.44,10.23,2.49,12.3-.15.33.79,1.17.88,1.29-1.23,2.86-2.36,5.51-3.5,8.18Zm8.44-19.2c-2.98-4.17-5.02-7.01-7.12-9.96,1.26-4.19,2.66-8.43,10.15-5.74-.92,4.76-1.85,9.58-3.02,15.7Zm-3.65-19.95c-.7-2.75-1.32-5.17-1.94-7.59-.41-.32-.81-.64-1.22-.96,2.96-1.72,5.92-3.45,9.24-5.38,2.38,10.83.64,14.41-6.08,13.93Zm12.12-13.43c.02-.11.9-.08,1.85-.16,0,3.02.08,5.94-.06,8.86-.03.62-.78,1.6-1.33,1.7-.53.09-1.8-.78-1.76-1.15.29-3.1.78-6.18,1.3-9.25Zm.04,26.67c-2.89-5.92-2.27-8.63,2.03-9.25-.64,2.93-1.22,5.56-2.03,9.25Zm46.17,37.37c-6.43-1.61-7.98-.7-8.49,5.49-1.96-.94-3.95-1.89-6.42-3.07-3.15-6.22,3.52-7.23,7.21-10.57,3.32,1.7,7.09,3.62,12.26,6.27-2.43,1.05-3.65,2.1-4.55,1.88Zm30.27-36.7c-.98-.24-2.12-.77-2.7-1.55-1.15-1.55-1.98-3.35-3.44-5.94,2.83,1.04,4.83,1.44,6.4,2.48.8.53,1.04,2.19,1.12,3.37.04.55-1.04,1.72-1.38,1.64Zm61.66,7.92c.38.31.77.63,1.15.94-1.56,3.46-.66,8.67-7.55,8.99,2.32-3.6,4.36-6.77,6.4-9.93Zm1.59,19.04c-1.69-.21-4.32-2.23-4.43-3.59-.19-2.38,5.37-4.47,9.22-3.39-2.32,2.31.83,7.69-4.79,6.98Zm59.77,18.57c-.13.68-1.76,1.67-2.44,1.5-.93-.23-2.14-1.34-2.33-2.25-.59-2.87-.76-5.82-1.14-9.2,2.31-.68,4.43-1.31,7.69-2.27-.61,4.45-1.03,8.37-1.78,12.22Zm92.55,8.22c-1.23-.11-2.57-1.92-3.24-3.28-.21-.44,1.63-2.71,2.4-2.64,1.69.15,3.29,1.26,6.42,2.63-2.84,1.78-4.29,3.41-5.58,3.28Zm80.46-105.04c3.39.71,6.22,1.31,9.57,2.01.3,3.3,1.83,7.26.53,8.73-2.29,2.59-6.3,3.65-10.11,5.63v-16.37Zm-33.98,14.4c.5-.1,1-.2,1.49-.3.74,1.98,1.48,3.97,2.3,6.16,4.54-2,1.95-6.56,3.53-10.81,3.47.5,7.16,1.04,11.05,1.6,0-2.21.18-5.89-.15-9.51-.07-.74-1.95-1.63-3.12-1.9-2.42-.56-4.97-.55-7.36-1.17-.94-.24-1.59-1.56-2.38-2.38,1.03-.47,2.02-1.17,3.1-1.35,1.77-.29,3.6-.28,5.41-.32,1.14-.02,3.08-.25,3.28.22,1.79,4.06,5.54,2.69,8.52,3.32,4.07.86,5.47,2.67,5.67,7.34.32,7.64-3.64,13.57-5.85,20.2-.27.82-2,1.56-3.11,1.64-4.31.32-8.64.42-12.97.48-3.38.05-7.06.34-6.85-4.64-.36,1.41-.73,2.82-1.09,4.23-.49-.08-.98-.17-1.47-.25v-12.55Zm40.93,47.05c-5.17-.4-6.48,1.93-6.29,6.8.31,7.92-.05,15.86-.22,23.8-.02.92-.61,1.83-.77,2.25-2.91-.79-5.56-1.36-8.11-2.25-1.49-.52-3.18-1.25-4.12-2.41-1.53-1.89-1.76-4.75-5.67-3.99-.82.16-2.84-4.62-3.88-7.29-.59-1.52-.34-3.37-.46-5.07-.47.02-.95.03-1.42.05-.37,1.37-.74,2.73-1.39,5.13-.11-2.03-.16-2.98-.28-5.08-1.67,2.14-2.62,3.59-3.81,4.78-.9.91-2.13,1.49-3.21,2.22-.33-.39-.65-.78-.98-1.17.72-2.65,1.43-5.29,2.25-8.28h-4.17c.1-1.94.19-3.81.29-5.83,2.13-.25,4.15-1.11,5.67-.56,5.71,2.06,7.99-4.4,12.65-4.81.34-.03.87-1.81.73-2.68-.61-3.78-1.44-7.52-2.16-11.15-3.52-.57-7.06-1.15-10.6-1.72.05-.64.09-1.29.14-1.93,4.36-.39,8.73-.77,13.09-1.16.03-.64.07-1.28.1-1.91-3.85-.71-7.7-1.42-11.42-2.1,4.09-1.15,8.17-3.05,12.35-3.31,7.72-.48,15.5-.12,23.24.21,1.04.04,2.8,1.96,2.85,3.07.33,6.97.21,13.96.37,20.94.08,3.58-2.45,3.65-4.74,3.47Zm-11.58-35.71c.94-5.74,10.48-10.84,14.97-7.69,1.56,1.09,1.53,4.44,2.5,7.69h-17.47Zm42.71,75.96c-9,2.05-10.36,1.1-10.69-7.82,11.2-2,12.46-1.05,10.69,7.82Zm37.34-8.43c-2.19.41-4.56.45-6.74,0-.67-.14-.92-2.26-1.57-4.02h9.31c-.38,1.65-.49,3.92-1.01,4.01Zm64.93-7.48c-9.95-.37-12.87-11.51-7.23-17.66,6.42,2.12,8.95,8.15,7.23,17.66Zm23.49,4.51c-.65-2.96-1.12-5.83-1.92-8.59-1.08-3.72.72-4.28,3.71-3.79,1.11,1.66,2.22,3.34,3.7,5.56-6.74-.75-4.04,4.43-5.49,6.82Zm57.59-4.89l-1.25.46c-.86-2.8-1.72-5.59-2.58-8.39,2.17-.4,4.34-.81,6.87-1.28-1.22,3.7-2.13,6.46-3.04,9.21Zm29.9,13.67c-1.17-2.34-3.55-4.86-3.23-6.97.46-3.09,2.86-5.89,4.73-9.35.94.86,1.98,1.34,2.08,1.97.52,3.37-2.46,7.26,1.57,10.11-1.71,1.42-3.43,2.83-5.14,4.25Zm30.7-5.63c.43-4.78-4.42-10.35,1.49-16-.57,6.14-1.03,11.07-1.49,16Zm38.7,11.91c-4.21-2.74-8.23-3.08-6.99-8.56.64-2.82-.41-6.02.17-8.87.32-1.55,2.45-2.74,3.77-4.09,1.02,1.18,2.85,2.3,2.92,3.54.32,5.5.14,11.03.14,17.98Zm4.46-2.05c.27-4,.46-6.95.66-9.91.62.04,1.25.08,1.87.12-.28,2.95,2.43,6.1-2.53,9.79Zm76.84-12.06c3.58-.3,6.27-.52,8.97-.74.02-.49.05-.98.07-1.46h-15.85c.01-.31.02-.62.03-.93,2.63-.69,5.23-1.79,7.89-1.97,4.77-.32,9.58-.09,14.35-.09-.89,8.21-4.79,9.75-15.47,5.19Zm99.14-145.86c-.13.3-.25.61-.38.91-3.53-.5-7.07-1-11.11-1.58-.05-.9-.12-2.26-.24-4.79,4.5,2.09,8.12,3.77,11.74,5.46Zm-.09,7c-.46.39-.93.78-1.39,1.17-2.25-.88-6.26.18-5.08-4.45.16-.62,1.93-1.5,2.12-1.33,1.56,1.41,2.93,3.04,4.36,4.61Zm-3.65-50.38q-7.03-.7-6.01-6.58h6.01v6.58Zm-.39-24.87c-.4.34-.81.69-1.21,1.03-1.59-.76-4.46-1.4-4.54-2.31-.29-3.05-.74-6.66,3.21-8.21-.01.03-.03.06-.04.09.86,3.13,1.72,6.27,2.58,9.4Zm-4.06-13.87c3.61.19,2.45,2.39,1.54,4.35-1.99.18-4.56,1.23-4.55-2.19,0-.77,2-2.22,3.01-2.16Zm-3.03,16.3c2.01.34,4.03.69,6.04,1.03l-.13,2.05c-1.86.48-3.72.97-6.49,1.68.24-1.96.4-3.36.57-4.76Zm-.67,76.12q14.11-.15,16.17,3.9h-16.17v-3.9Zm-5.8-95.54c.26,3.06,5.25,6.53-.89,9.03l.89-9.03Zm2.18,45.41c-1.67,1.91-2.92,3.35-4.18,4.79-.52-.43-1.03-.85-1.55-1.28-.66-3.49.12-5.48,5.73-3.51Zm-2.74-22.96c-.14-.16-.77-.85-1.41-1.55,1.03-.54,2.06-1.07,3.34-1.74q.76,10.55-5.37,10.38c1.19-2.45,2.24-4.63,3.44-7.09Zm1.34,13.71c.61,5.55-.46,6.12-6.26,4.02,2.11-1.36,3.99-2.56,6.26-4.02Zm-12.35,47.25c.05-1.05,1.32-2.63,2.34-2.94,2.73-.83,5.61-1.31,8.46-1.47.83-.05,2.49,1.46,2.49,2.26.02,2.92-.76,5.85-.71,8.77.04,2.08,1.23,4.13,1.32,6.22.05,1.05-1.2,2.15-1.86,3.23-.75-1.05-2.1-2.08-2.12-3.14-.05-2.54.53-5.09.85-7.64-.7-.14-1.4-.28-2.09-.41-.39,3.62-.78,7.25-1.22,11.4-1.76.1-4.15.24-7.58.43,0-5.87-.13-11.3.11-16.71Zm4.96,30.69c-2.85.04-5.36-.68-4.98-4.46.17-1.63.23-3.28.39-5.82,4.18-.19,8.47-.39,13.3-.61v10.05c-3.21.33-5.96.8-8.72.84Zm8.55,2.27c-.33,1.96-.62,3.65-1.03,6.13-.55-1.67-.83-2.53-1.16-3.53h-10.43c-.04-.53-.09-1.07-.13-1.6,3.56-3.53,8-1.15,12.75-.99Zm-54.72,101.6c1.49-4.72,2.66-8.42,3.84-12.13,4.23,1.42,8.13,7.36,7.48,10.67-.46,2.34-2.02,2.54-4.39,1.59-1.65-.66-3.77-.13-6.93-.13Zm13.74,19.49c-.31.56-.82,1.02-2.33,2.85-1.64-4.1-2.94-7.34-4.24-10.58.55-.48,1.09-.97,1.64-1.45,2.92.69,5.85,1.39,8.77,2.08-1.28,2.37-2.53,4.75-3.84,7.1Zm13.46,5.41c-1.39.98-4.58-.6-6.96-1.03.4-1.06.49-2.5,1.25-3.12,2.27-1.84,4.8-3.36,7.51-5.2,4.68,4.49.94,7.42-1.8,9.34Zm2.35-52.19c-.31,2.1-1.44,2.77-2.84,2.94.3.37.6.74.91,1.11-1.37,3.03-2.74,6.06-4.11,9.09,1.11-1.53,2.34-2.98,3.31-4.59,1.97-3.29,3.85-6.55,7.95-5.14-2.33,4.88-4.36,9.62-6.84,14.12-1.41,2.56-3.49,5.55-7.01,3.85-2.35-1.14-4.21-3.52-1.68-6.48-.43-2.25-2-5.49-1.08-6.54,2.05-2.32,5.17-3.68,7.94-5.36-1.16.04-2.45-.14-3.6-.07-3.75.2-5.14-1.26-3.91-4.94q-3.44-.97-6.71,3.01c6.12-17.18,17.94-31.08,26.34-46.94.7.12,1.4.25,2.09.37.53,6.34,1.06,12.68,1.59,19.02-.51.09-1.02.19-1.53.28-.69-1.5-1.39-3-2.08-4.5-.25.06-.49.11-.74.17,1.92,8.25,3.83,16.51,5.98,25.73-6.33.92-12.05,1.76-17.68,2.58,1.86.86,3.79,1.73,3.7,2.3Zm13.62-65.11c.17-1.39,2.46-3.2,4.09-3.53,1.56-.31,5-.65,4.13,2.95-.43,1.78-1.94,3.3-3.74,6.19-2.34-2.77-4.64-4.33-4.48-5.61Zm12.03,39.05h-5.94c-.22-2.56-.44-5.07-.66-7.61,7.59-.25,8.73,1.18,6.6,7.61Zm2.57-62.22c5.83,2.21,10.97.04,16.03,1.65-1.79,1.31-4.12,2.1-4.59,3.51-1.84,5.45-4.03,4.82-6.92.55-.92,1.29-1.64,2.3-2.54,3.56,1.28.15,2.13.26,3.63.44-.91.96-1.62,2.03-1.87,1.93-1.31-.52-3.44-1.18-3.58-2.07-.45-2.9-.17-5.91-.17-9.57Zm12.05,77.89c-.03.6-.27,1.19-.61,2.57-1.63-1.51-2.81-2.6-3.99-3.69-.33.17-.67.26-.87.47-1.09,1.14-2.14,2.31-3.2,3.47-.69-.83-2.13-2-1.93-2.43.72-1.59,1.72-3.76,3.1-4.19,2.21-.7,4.8-.19,7.52-.19,0,1.4.04,2.69-.02,3.98Zm-6.57-7.05c-3.74-8.24-8.85-15.71-1.13-23.99,1,1.16,2.04,2.55,3.27,3.75.98.96,2.48,2.63,3.22,2.38,3.99-1.33,4.02,1.62,4.46,3.51,1.43-1.31,2.88-2.65,4.12-3.8-.21-3.94-7.84-4.35-3.67-11.04,5.57,10.23,10.82,19.89,16.33,30.01-9.65.24-18.22-5.59-26.6-.83Zm141.01,48.81c-.42-.01-.83-.02-1.25-.04v-12.44l1.79.04-.55,12.44Zm10-5.86c-.21,1.41-2.04,2.57-3.14,3.84-.31-.17-.61-.33-.92-.5.34-2.88.68-5.76,1.02-8.63-.2-.07-.39-.15-.59-.22-.46,1.2-.93,2.4-1.39,3.59-.2-.12-.66-.27-.66-.42,0-2.41-.2-4.86.17-7.21.26-1.71,1.29-3.3,1.98-4.94,1.29,1.36,3.46,2.59,3.69,4.11.51,3.39.35,6.98-.17,10.39Zm8.82-23.45c-.16.56-1.94,1.28-2.33,1-1.13-.79-1.93-2.04-2.77-3-1.96,1.02-4.5,2.35-7.04,3.67-.53-.36-1.06-.73-1.58-1.09,1.44-5.35,2.67-10.78,4.42-16.03,1-2.99,4.1-2.6,7.43.8.8-1.23,1.59-2.43,3.02-4.63,1.83,7.33.61,13.34-1.15,19.29Zm41.25-58.1c4.04,9.55,3.74,12.68-1.94,16.13-1.65-6.75-3.17-13.02-4.67-19.15,4.5-2.49,5.5.4,6.61,3.03Zm-9.6,19.27c-.13,2.81-.24,5.34-.36,7.95-3.59-.74-6.62-1.37-9.77-2.02-.24-6.8.48-7.3,10.12-5.93Zm-2.84-18.58c-2.26,2.99-4.2,3.34-13.67,2.68,0-6.36-.2-12.79.21-19.18.06-.98,2.88-1.78,4.43-2.67.48.47.97.94,1.45,1.41-1.58,4.68,1.98,10.13-2.64,14.46-.06.05,1.32,2.41,2.25,2.61,2.52.54,5.16.49,7.98.69Zm-13.58-67.3c.37-.48,3.21-.07,3.56.61,1.66,3.3,3.08,6.89-2.7,8.85-2.41-3.09-3.33-6.23-.85-9.45Zm3.71,11.79c2.62,1.08,4.97,2.5,4.16,6.76-1.15,6.06-1.89,12.2-2.89,18.95h-4.68c-2.97-9.07-1.09-17.42,3.42-25.72Zm4.45,113.73c-2.82.31-5.33.58-8.62.94,1.99-9.55-3.85-19.67,6.77-28.18-.8,4.14-1.36,7.05-2.05,10.62,4.06.27,8.47.57,13.12.89v5.77c-2.95.24-5.87.47-9.23.74v9.22Zm12.87,1.69c-3.3-.15-6.59-.52-9.88-.82.02-.81.04-1.61.07-2.42,3.3,0,6.59-.07,9.88.07.49.02,1.33,1.06,1.3,1.59-.03.57-.91,1.6-1.37,1.58Zm10.47-22.74v9.07c.04,3.03.22,6.07.06,9.08-.09,1.57-.79,3.11-1.21,4.66-1.2-1.72-2.95-3.29-3.5-5.2-2.42-8.37-4.84-16.78-4.33-27.21,1.84,2.5,2.8,3.82,3.77,5.14-.6-3.42-1.32-6.84-1.78-10.28-.31-2.31-.27-4.3,3.13-4.73,1.32-.17,2.34-2.7,3.81-4.57,4.6,15.68,10.14,31.29,11.29,48-6.93-6.6-3.38-17.42-11.25-23.96Zm66.51,15.35c.21-2.57.34-3.52.36-4.47.01-.78-.12-1.56-.28-3.44,2.88.87,5.17,1.56,7.46,2.25-2.18,1.64-4.36,3.28-7.54,5.67Zm17.7,31.41c-.19-3.09-.32-5.21-.5-8.22-1.04,4.45.79,9.23-4.15,11.78q-1.9-11.83,1.89-15.31c-1.81-1.61-3.59-3.19-5.36-4.77.3-.31.61-.62.91-.93q9.48,5.37,7.21,17.45Zm2.91-123.34c-.32-2.74-.82-5.46-1.28-8.42.82-.05,2.05-.11,2.64-.15.93,5.13,1.75,9.64,2.54,13.98-3.43-1-3.38-1-3.9-5.42Zm11.04,81.29v10.17c-4.93-3.54-5.06-5.61,0-10.17Zm1.52,18.78c.64,3.68,1.28,7.36,1.91,11.01-3.81-1.73-4.72-6.77-1.91-11.01Zm6.93-32.82c-1.08,1.46-3.01,2.3-4.42,3.29-1.43-2.52-3.4-5.99-5.82-10.24,2.57.42,4.43,3.04,6.23.03.17-.29,3.95.84,5.13,2.15.65.72-.18,3.5-1.12,4.78Z"/>
    <path class="cls-1" d="m924.33,268.71c-6.65,0-13.31-.1-19.96.05-3.04.07-4.55-.66-4.5-4.12.09-6.48-.14-12.97-.44-19.45-.16-3.43,1.12-4.8,4.57-4.72,3.47.08,7.78,1.1,7.52-4.96-.02-.59,2.24-1.84,3.45-1.84,10.48-.05,20.96,0,31.43.37,1.22.04,3.33,2.21,3.38,3.46.35,8.97.22,17.96.35,26.94.04,3.11-1.55,4.04-4.34,4.02-7.15-.05-14.31-.02-21.46-.02,0,.09,0,.18,0,.27Z"/>
    <path class="cls-1" d="m400.07,144.02c-1.77,4.56-2.9,9.53-5.45,13.61-5.61,8.96-15.97,10.11-24.11,3.32-2.29-1.91-4.4-4.29-7.04-5.43-2.48-1.06-6.56-2.06-8.17-.81-4.46,3.46-7.21.23-9.79-1.79-3.28-2.56-3.9-6.52-2.05-10.42,1.77-3.73,4.79-5.71,8.94-4.37,5.46,1.76,8.51.53,10.93-5.21,3.88-9.16,11.74-12.88,20.05-10.93,9.44,2.21,15.71,10.87,16.69,22.03Z"/>
    <path class="cls-1" d="m462.7,121.2c.93,2.28,2.3,4.5,2.59,6.85.13,1.03-1.88,2.42-3.06,3.49-.87.79-2.66,1.19-2.85,2.02-.9,4.04-2.03,8.19-1.94,12.27.4,18.13,1.4,36.26,1.69,54.39.08,5.08,2.15,6.41,6.52,6.23,2.14-.09,4.29-.02,6.71,1.05-4.17.58-8.34,1.17-12.51,1.75.11.31.23.62.34.92h8.48v4.45c1.85,1.93,3.83,4.01,5.82,6.09.28-.13.56-.25.84-.38-1.15-2.39-2.3-4.78-3.69-7.65.8-.53,2.21-1.47,5.15-3.44-1.5,9.55,2.15,17.92-2.21,25.99-3.73,6.89-10.97,9.63-17.44,10.02-4.56.27-10.13-4.09-14.01-7.72-4.17-3.91-4.8-9.72-2.65-15.37.35-.93.75-1.88,1.33-2.67,2.87-3.9,6.18-7.79-1.78-9.88,3.26-5.13,5.4-.46,7.26-.24,2.74-1.3,5.24-2.13,7.29-3.59,1.1-.78,2.05-2.65,2.02-4.01-.5-19.64-.97-39.28-1.95-58.89-.25-5.05-2.33-9.99-3.36-15.02-.46-2.23-.41-4.56-.57-6.66h11.96s.01-.02.01-.02Z"/>
    <path class="cls-1" d="m957.38,209.12c0,5.8.18,10.61-.14,15.4-.07,1.02-1.92,2.74-2.98,2.76-9.8.21-19.6.13-29.92.13,0-5.54-.14-10.64.13-15.72.05-.9,1.78-2.43,2.75-2.45,9.95-.18,19.9-.11,30.16-.11Z"/>
    <path class="cls-1" d="m460.41,248.83c2.59,1.37,5.86,2.59,8.47,4.65,1.52,1.2,2.27,3.65,2.76,5.69.14.58-1.83,2.27-2.96,2.4-2.21.25-4.51-.25-6.77-.44-2.35-.2-4.71-.28-7.03-.64-1.09-.17-2.09-.9-3.15-1.34-1.64-.69-3.29-1.35-4.93-2.02-.18.47-.37.94-.55,1.41.66.51,1.33,1.03,1.09.85v7.03c-4,.71-7.26.68-6.75-5.18.09-1.02-1.93-2.7-3.31-3.25-1.59-.63-3.54-.36-5.44-.48-1.15-4.06.69-5.31,4.08-5.74,4.03-.51,8.02-1.41,12.05-1.98,2.9-.41,5.02.4,4.66,4.32,3.06-.36,6.02-.7,9.4-1.1-.85-2.18-1.43-3.65-1.63-4.17Z"/>
    <path class="cls-1" d="m425.71,136.4c-.63-1.86-1.04-3.1-1.47-4.34-.78-2.25-1.82-4.45-2.29-6.77-.45-2.18-.99-5.15,2.52-5.13,1.8.01,3.6,1.51,5.4,2.33-.17.38-.34.76-.5,1.13,1.51-.52,3.01-1.05,4.65-1.62-.23-3.05-.46-6.12-.69-9.19-.36.42-.72.85-1.08,1.27,4.17,2.58,8.35,5.16,11.57,7.15-9.29-.66-12.08,9.67-18.1,15.16Z"/>
    <path class="cls-1" d="m540.78,257.39c-.1-1.16-.19-2.33-.3-3.67-4.77-1.18-9.61-2.38-14.11-3.49.98-1.6,2.28-4.57,4.38-6.77.85-.89,4.61-.75,5.07.05,2.41,4.22,4.14,1.16,5.99-.19,4.14,1.38,4.46,3.65,2.43,7.18-1.21,2.1-1.52,4.73-2.23,7.12-.41-.08-.81-.16-1.22-.24Z"/>
    <path class="cls-1" d="m869.82,268.32v2.82c-1.88-2.39-3.33-4.22-4.71-5.97,1.67-.29,3.17-.55,4.33-.75-.65-3.53-1.18-6.45-1.72-9.36.49-.2.98-.39,1.47-.59,2.85,2.54,5.71,5.09,9.2,8.2-3.01,1.99-5.56,3.67-8.57,5.65Z"/>
    <path class="cls-1" d="m772.36,227.39h3.41c-.69-2.14-1.3-4.01-2.01-6.23,2.36-.56,4.18-.99,6.33-1.51,3.9,5.94,1.36,11.66-.39,17.83q-.65-4.96-7.34-10.1s0,.02,0,.02Z"/>
    <path class="cls-1" d="m842.46,226.33c-1.91-.39-3.82-.78-4.73-.97-2.75,1.21-4.95,2.18-7.16,3.16.44-2.08.67-4.23,1.36-6.22,2.02-5.86,2.79-6,7.26-1.62,1.36,1.34,2.64,2.77,3.95,4.15-.23.5-.45,1-.68,1.49Z"/>
    <path class="cls-1" d="m523.3,214.03c-.49,2.95-.99,5.9-1.48,8.84-2.23-.97-5.85-1.43-6.44-3.01-2.29-6.14,4.82-3.36,6.19-6.37.58.18,1.15.36,1.73.53Z"/>
    <path class="cls-1" d="m397.82,246.53c1.05-6.55,1.86-11.68,2.66-16.67,1.49,1.3,3.05,2.67,5.1,4.45-6.18.45-4.93,4.45-4.64,8.22,1.82.64,3.55,1.25,5.29,1.85-.03.47-.06.94-.08,1.41-3.04.27-6.08.53-8.33.73Z"/>
    <path class="cls-1" d="m401.36,217.95c2.65,1.3,6.14,1.93,6.72,3.57.61,1.74-1.55,4.45-2.62,7.01-5.02-1.65-4.74-5.46-4.1-10.59Z"/>
    <path class="cls-1" d="m542.58,276.06c1.41.11,2.79.21,4.8.36-2.37,3.86-4.06,7.34,1.54,9.56-1.66.91-3.04,1.67-5.65,3.1-.26-2.23-.57-4.06-.66-5.9-.11-2.11-.03-4.24-.03-7.11Z"/>
    <path class="cls-1" d="m519.52,249.64q-4.62-4.87-1.32-10.19,3.85,5.14,1.32,10.19Z"/>
    <path class="cls-1" d="m690.63,257.8c.54,1.38,1.38,2.47,1.24,3.4-.34,2.22-1.1,4.39-1.88,6.51-.04.1-2.73-.56-2.71-.69.28-2.48.69-4.95,1.31-7.37.16-.62,1.11-1.04,2.04-1.84Z"/>
    <path class="cls-1" d="m462.69,121.22c-1.15-2.65-1.46-4.82,1.52-6.86,2.02-1.38,3.31-3.84,4.93-5.82.51.35,1.02.7,1.53,1.05-2.65,3.87-5.31,7.73-7.96,11.6,0,0-.01.02-.01.02Z"/>
    <path class="cls-1" d="m983.55,283.72c6.04-2.11,7.56-1.59,8.22,3.86-3.14-.8-5.91-1.5-8.67-2.2l.45-1.65Z"/>
    <path class="cls-1" d="m770.78,165.78c1.04,1.44,2.07,2.88,3.12,4.34-1.76,1.92-3.33,3.64-4.9,5.35-.37-.13-.74-.25-1.1-.38.47-2.9.94-5.81,1.41-8.71l1.47-.6Z"/>
    <path class="cls-1" d="m521.91,255.44c-2.87,2.28-4.94,3.93-7.46,5.93-.16-2.81-.29-5.15-.42-7.51,2.55.51,4.62.93,7.88,1.58Z"/>
    <path class="cls-1" d="m1324.06,248.36c-.16,1.63-.32,3.25-.48,4.88-.51.1-1.03.2-1.54.3-.69-4.25-1.37-8.49-2.06-12.74,1.36,2.52,2.72,5.04,4.09,7.56Z"/>
  </g>
</svg>