<?xml version="1.0" encoding="UTF-8"?>
<svg id="Layer_1" data-name="Layer 1" xmlns="http://www.w3.org/2000/svg" viewBox="0 0 169.99 40.75">
  <defs>
    <style>
      .cls-1 {
        fill: #CCCCCC;
        stroke-width: 0px;
      }
    </style>
<lineargradient id="cls-1" x1="0%" y1="0%" x2="100%" y2="0%">
                <stop offset="0%" style="stop-color: red;"/>
                <stop offset="100%" style="stop-color: yellow;"/>
            </lineargradient>
  </defs>
  <g>
    <path class="cls-1" d="M23.62,9.72h-7.44c-2.72,0-4.78,2.06-4.78,4.75v1.77c0,2.72,2.09,4.78,4.78,4.78h7.32c.92,0,1.65.73,1.65,1.62v2.6c0,.92-.73,1.65-1.65,1.65h-7.35c-.92,0-1.65-.73-1.65-1.62v-.98h-3.26v.95c0,2.69,2.06,4.75,4.78,4.75h7.6c2.72,0,4.78-2.06,4.78-4.78v-2.53c0-2.69-2.06-4.75-4.78-4.75h-7.32c-.89,0-1.65-.73-1.65-1.58v-1.9c0-.89.73-1.62,1.65-1.62h7.19c.92,0,1.65.73,1.65,1.62v.98h3.26v-.95c0-2.69-2.06-4.75-4.78-4.75Z"/>
    <path class="cls-1" d="M35.31,25.62v-7.48h4.37v-3.1h-4.37v-3.74h-3.26v14.57c0,2.5,1.77,4.12,4.31,4.12h4.69v-3.1h-4.43c-.73,0-1.3-.57-1.3-1.27Z"/>
    <path class="cls-1" d="M55.58,25.62c0,.73-.57,1.27-1.27,1.27h-5.89c-.7,0-1.27-.54-1.27-1.27v-10.58h-3.26v10.74c0,2.53,1.93,4.21,4.43,4.21h6.08c2.5,0,4.43-1.68,4.43-4.21v-10.74h-3.26v10.58Z"/>
    <path class="cls-1" d="M74.33,15.04h-7.29c-2.5,0-4.4,1.77-4.4,4.28v6.4c0,2.53,1.9,4.28,4.4,4.28h4.4c1.46,0,2.79-1.43,2.98-2.82l.7,2.82h2.47V9.09h-3.26v5.96ZM74.33,26.89h-7.16c-.7,0-1.27-.57-1.27-1.3v-6.15c0-.7.57-1.3,1.27-1.3h7.16v8.74Z"/>
    <rect class="cls-1" x="81.4" y="15.04" width="3.26" height="14.95"/>
    <rect class="cls-1" x="81.4" y="9.09" width="3.26" height="3.17"/>
    <path class="cls-1" d="M98.98,15.04h-6.08c-2.53,0-4.43,1.74-4.43,4.28v6.43c0,2.5,1.9,4.24,4.43,4.24h6.08c2.5,0,4.43-1.74,4.43-4.24v-6.46c0-2.5-1.93-4.24-4.43-4.24ZM100.15,25.62c0,.7-.6,1.27-1.3,1.27h-5.83c-.73,0-1.3-.57-1.3-1.27v-6.18c0-.73.57-1.3,1.3-1.3h5.83c.7,0,1.3.57,1.3,1.27v6.21Z"/>
  </g>
  <g>
    <path class="cls-1" d="M168.52,0H1.46C.66,0,0,.66,0,1.46v37.82c0,.81.66,1.46,1.46,1.46h167.06c.81,0,1.46-.66,1.46-1.46V1.46c0-.81-.66-1.46-1.46-1.46ZM109.28,37.36H3.39V3.39h105.89v33.97ZM123.54,29.99h-3.26v-10.58c0-.7-.57-1.27-1.3-1.27h-3.17v-3.1h3.29c2.53,0,4.43,1.74,4.43,4.24v10.71ZM143.3,25.75c0,2.5-1.2,3.88-3.7,3.88h-7.82c-2.53,0-4.21-1.38-4.21-3.88v-7.26c0-2.53,1.68-3.66,4.21-3.66h7.82c2.5,0,3.7,1.13,3.7,3.63v7.3ZM162.79,25.72c0,2.53-1.9,4.28-4.4,4.28h-4.4c-1.46,0-2.79-1.43-2.98-2.82l-.7,2.82h-2.47V9.09h3.26v5.96h7.29c2.5,0,4.4,1.77,4.4,4.28v6.4Z"/>
    <path class="cls-1" d="M158.26,18.15h-7.16v8.74h7.16c.7,0,1.27-.57,1.27-1.3v-6.15c0-.7-.57-1.3-1.27-1.3Z"/>
    <path class="cls-1" d="M131.91,17.6c-.73,0-1.56,1.12-1.56,1.85v5.99l8.93-7.84h-7.37Z"/>
    <path class="cls-1" d="M131.91,26.85h7.57c.7,0,1.05-.54,1.05-1.23v-6.12l-8.65,7.37s.02-.02.03-.02Z"/>
  </g>
</svg>